# MagicaVoxel @ ephtracy

# material
mtllib sushiman-arm.mtl

# normals
vn -1 0 0
vn 1 0 0
vn 0 0 1
vn 0 0 -1
vn 0 -1 0
vn 0 1 0

# texcoords
vt 0.00195312 0.5
vt 0.0371094 0.5
vt 0.638672 0.5
vt 0.982422 0.5

# verts
v -1.5 0 1.5
v -1.5 0 0.5
v -1.5 1 1.5
v -1.5 1 0.5
v -1.5 2 1.5
v -1.5 2 0.5
v -1.5 3 1.5
v -1.5 3 0.5
v -1.5 4 1.5
v -1.5 4 0.5
f -8/3/1 -9/3/1 -10/3/1
f -7/3/1 -9/3/1 -8/3/1
f -6/1/1 -7/1/1 -8/1/1
f -5/1/1 -7/1/1 -6/1/1
f -4/4/1 -5/4/1 -6/4/1
f -3/4/1 -5/4/1 -4/4/1
f -2/2/1 -3/2/1 -4/2/1
f -1/2/1 -3/2/1 -2/2/1
v -0.5 0 1.5
v -0.5 0 0.5
v -0.5 1 1.5
v -0.5 1 0.5
v -0.5 2 1.5
v -0.5 2 0.5
v -0.5 3 1.5
v -0.5 3 0.5
v -0.5 4 1.5
v -0.5 4 0.5
f -10/3/2 -9/3/2 -8/3/2
f -8/3/2 -9/3/2 -7/3/2
f -8/1/2 -7/1/2 -6/1/2
f -6/1/2 -7/1/2 -5/1/2
f -6/4/2 -5/4/2 -4/4/2
f -4/4/2 -5/4/2 -3/4/2
f -4/2/2 -3/2/2 -2/2/2
f -2/2/2 -3/2/2 -1/2/2
v -1.5 0 1.5
v -1.5 1 1.5
v -1.5 2 1.5
v -1.5 3 1.5
v -1.5 4 1.5
v -0.5 0 1.5
v -0.5 1 1.5
v -0.5 2 1.5
v -0.5 3 1.5
v -0.5 4 1.5
f -5/3/3 -9/3/3 -10/3/3
f -4/1/3 -8/1/3 -9/1/3
f -4/3/3 -9/3/3 -5/3/3
f -3/4/3 -7/4/3 -8/4/3
f -3/1/3 -8/1/3 -4/1/3
f -2/2/3 -6/2/3 -7/2/3
f -2/4/3 -7/4/3 -3/4/3
f -1/2/3 -6/2/3 -2/2/3
v -1.5 0 0.5
v -1.5 1 0.5
v -1.5 2 0.5
v -1.5 3 0.5
v -1.5 4 0.5
v -0.5 0 0.5
v -0.5 1 0.5
v -0.5 2 0.5
v -0.5 3 0.5
v -0.5 4 0.5
f -10/3/4 -9/3/4 -5/3/4
f -9/1/4 -8/1/4 -4/1/4
f -5/3/4 -9/3/4 -4/3/4
f -8/4/4 -7/4/4 -3/4/4
f -4/1/4 -8/1/4 -3/1/4
f -7/2/4 -6/2/4 -2/2/4
f -3/4/4 -7/4/4 -2/4/4
f -2/2/4 -6/2/4 -1/2/4
v -1.5 0 1.5
v -0.5 0 1.5
v -1.5 0 0.5
v -0.5 0 0.5
f -2/3/5 -3/3/5 -4/3/5
f -1/3/5 -3/3/5 -2/3/5
v -1.5 4 1.5
v -0.5 4 1.5
v -1.5 4 0.5
v -0.5 4 0.5
f -4/2/6 -3/2/6 -2/2/6
f -2/2/6 -3/2/6 -1/2/6
